<mxfile host="app.diagrams.net" modified="2023-08-30T14:43:18.977Z" agent="Mozilla/5.0 (Macintosh; Intel Mac OS X 10_15_7) AppleWebKit/537.36 (KHTML, like Gecko) Chrome/115.0.0.0 Safari/537.36" etag="WoYzMScUYBJzBtYiDuGp" version="21.7.1" type="device">
  <diagram name="第 1 页" id="fkfbWnTUXxYp3sP-v49q">
    <mxGraphModel dx="1145" dy="618" grid="1" gridSize="10" guides="1" tooltips="1" connect="1" arrows="1" fold="1" page="1" pageScale="1" pageWidth="2339" pageHeight="3300" math="0" shadow="0">
      <root>
        <mxCell id="0" />
        <mxCell id="1" parent="0" />
        <mxCell id="iMyqDtAnHTY7d6lFeYDp-47" value="" style="rounded=0;whiteSpace=wrap;html=1;dashed=1;" vertex="1" parent="1">
          <mxGeometry x="505" y="430" width="635" height="230" as="geometry" />
        </mxCell>
        <mxCell id="iMyqDtAnHTY7d6lFeYDp-43" value="" style="rounded=0;whiteSpace=wrap;html=1;dashed=1;" vertex="1" parent="1">
          <mxGeometry x="450" y="140" width="390" height="120" as="geometry" />
        </mxCell>
        <mxCell id="iMyqDtAnHTY7d6lFeYDp-1" value="" style="rounded=1;whiteSpace=wrap;html=1;fillColor=#fff2cc;strokeColor=#d6b656;" vertex="1" parent="1">
          <mxGeometry x="50" y="370" width="150" height="100" as="geometry" />
        </mxCell>
        <mxCell id="iMyqDtAnHTY7d6lFeYDp-2" value="SDK进程" style="rounded=0;whiteSpace=wrap;html=1;fillColor=#d5e8d4;strokeColor=#82b366;" vertex="1" parent="1">
          <mxGeometry x="110" y="380" width="80" height="30" as="geometry" />
        </mxCell>
        <mxCell id="iMyqDtAnHTY7d6lFeYDp-3" value="Node-exporter" style="rounded=0;whiteSpace=wrap;html=1;fillColor=#d5e8d4;strokeColor=#82b366;" vertex="1" parent="1">
          <mxGeometry x="110" y="430" width="80" height="30" as="geometry" />
        </mxCell>
        <mxCell id="iMyqDtAnHTY7d6lFeYDp-4" value="虚拟机" style="text;html=1;align=center;verticalAlign=middle;resizable=0;points=[];autosize=1;strokeColor=none;fillColor=none;" vertex="1" parent="1">
          <mxGeometry x="50" y="380" width="60" height="30" as="geometry" />
        </mxCell>
        <mxCell id="iMyqDtAnHTY7d6lFeYDp-5" value="" style="rounded=1;whiteSpace=wrap;html=1;fillColor=#fff2cc;strokeColor=#d6b656;" vertex="1" parent="1">
          <mxGeometry x="60" y="380" width="150" height="100" as="geometry" />
        </mxCell>
        <mxCell id="iMyqDtAnHTY7d6lFeYDp-10" style="rounded=0;orthogonalLoop=1;jettySize=auto;html=1;exitX=1;exitY=0.5;exitDx=0;exitDy=0;entryX=0;entryY=0.5;entryDx=0;entryDy=0;" edge="1" parent="1" source="iMyqDtAnHTY7d6lFeYDp-6" target="iMyqDtAnHTY7d6lFeYDp-9">
          <mxGeometry relative="1" as="geometry" />
        </mxCell>
        <mxCell id="iMyqDtAnHTY7d6lFeYDp-6" value="SDK进程" style="rounded=0;whiteSpace=wrap;html=1;fillColor=#d5e8d4;strokeColor=#82b366;" vertex="1" parent="1">
          <mxGeometry x="120" y="390" width="80" height="30" as="geometry" />
        </mxCell>
        <mxCell id="iMyqDtAnHTY7d6lFeYDp-11" style="rounded=0;orthogonalLoop=1;jettySize=auto;html=1;exitX=1;exitY=0.5;exitDx=0;exitDy=0;" edge="1" parent="1" source="iMyqDtAnHTY7d6lFeYDp-7">
          <mxGeometry relative="1" as="geometry">
            <mxPoint x="300" y="420" as="targetPoint" />
          </mxGeometry>
        </mxCell>
        <mxCell id="iMyqDtAnHTY7d6lFeYDp-7" value="Node-exporter" style="rounded=0;whiteSpace=wrap;html=1;fillColor=#d5e8d4;strokeColor=#82b366;" vertex="1" parent="1">
          <mxGeometry x="120" y="440" width="80" height="30" as="geometry" />
        </mxCell>
        <mxCell id="iMyqDtAnHTY7d6lFeYDp-8" value="虚拟机" style="text;html=1;align=center;verticalAlign=middle;resizable=0;points=[];autosize=1;strokeColor=none;fillColor=none;" vertex="1" parent="1">
          <mxGeometry x="60" y="390" width="60" height="30" as="geometry" />
        </mxCell>
        <mxCell id="iMyqDtAnHTY7d6lFeYDp-15" style="edgeStyle=orthogonalEdgeStyle;rounded=0;orthogonalLoop=1;jettySize=auto;html=1;exitX=1;exitY=0.5;exitDx=0;exitDy=0;entryX=0;entryY=0.5;entryDx=0;entryDy=0;" edge="1" parent="1" source="iMyqDtAnHTY7d6lFeYDp-9" target="iMyqDtAnHTY7d6lFeYDp-14">
          <mxGeometry relative="1" as="geometry" />
        </mxCell>
        <mxCell id="iMyqDtAnHTY7d6lFeYDp-18" style="edgeStyle=orthogonalEdgeStyle;rounded=0;orthogonalLoop=1;jettySize=auto;html=1;exitX=1;exitY=0.5;exitDx=0;exitDy=0;entryX=0;entryY=0.5;entryDx=0;entryDy=0;" edge="1" parent="1" source="iMyqDtAnHTY7d6lFeYDp-9" target="iMyqDtAnHTY7d6lFeYDp-17">
          <mxGeometry relative="1" as="geometry" />
        </mxCell>
        <mxCell id="iMyqDtAnHTY7d6lFeYDp-9" value="prometheus/vmagent" style="rounded=1;whiteSpace=wrap;html=1;fillColor=#fff2cc;strokeColor=#d6b656;" vertex="1" parent="1">
          <mxGeometry x="300" y="390" width="120" height="60" as="geometry" />
        </mxCell>
        <mxCell id="iMyqDtAnHTY7d6lFeYDp-13" value="vminsert" style="rounded=1;whiteSpace=wrap;html=1;fillColor=#fff2cc;strokeColor=#d6b656;" vertex="1" parent="1">
          <mxGeometry x="680" y="300" width="120" height="60" as="geometry" />
        </mxCell>
        <mxCell id="iMyqDtAnHTY7d6lFeYDp-26" style="edgeStyle=orthogonalEdgeStyle;rounded=0;orthogonalLoop=1;jettySize=auto;html=1;exitX=1;exitY=0.5;exitDx=0;exitDy=0;entryX=0;entryY=0.5;entryDx=0;entryDy=0;" edge="1" parent="1" source="iMyqDtAnHTY7d6lFeYDp-14" target="iMyqDtAnHTY7d6lFeYDp-13">
          <mxGeometry relative="1" as="geometry" />
        </mxCell>
        <mxCell id="iMyqDtAnHTY7d6lFeYDp-14" value="vmauth" style="rounded=1;whiteSpace=wrap;html=1;fillColor=#fff2cc;strokeColor=#d6b656;" vertex="1" parent="1">
          <mxGeometry x="510" y="300" width="120" height="60" as="geometry" />
        </mxCell>
        <mxCell id="iMyqDtAnHTY7d6lFeYDp-28" style="edgeStyle=orthogonalEdgeStyle;rounded=0;orthogonalLoop=1;jettySize=auto;html=1;exitX=1;exitY=0.5;exitDx=0;exitDy=0;" edge="1" parent="1" source="iMyqDtAnHTY7d6lFeYDp-16" target="iMyqDtAnHTY7d6lFeYDp-20">
          <mxGeometry relative="1" as="geometry" />
        </mxCell>
        <mxCell id="iMyqDtAnHTY7d6lFeYDp-16" value="kafka" style="rounded=1;whiteSpace=wrap;html=1;fillColor=#e1d5e7;strokeColor=#9673a6;" vertex="1" parent="1">
          <mxGeometry x="690" y="470" width="120" height="60" as="geometry" />
        </mxCell>
        <mxCell id="iMyqDtAnHTY7d6lFeYDp-19" style="edgeStyle=orthogonalEdgeStyle;rounded=0;orthogonalLoop=1;jettySize=auto;html=1;exitX=1;exitY=0.5;exitDx=0;exitDy=0;entryX=0;entryY=0.5;entryDx=0;entryDy=0;" edge="1" parent="1" source="iMyqDtAnHTY7d6lFeYDp-17" target="iMyqDtAnHTY7d6lFeYDp-16">
          <mxGeometry relative="1" as="geometry" />
        </mxCell>
        <mxCell id="iMyqDtAnHTY7d6lFeYDp-17" value="自研source" style="rounded=1;whiteSpace=wrap;html=1;fillColor=#e1d5e7;strokeColor=#9673a6;" vertex="1" parent="1">
          <mxGeometry x="510" y="470" width="120" height="60" as="geometry" />
        </mxCell>
        <mxCell id="iMyqDtAnHTY7d6lFeYDp-30" style="edgeStyle=orthogonalEdgeStyle;rounded=0;orthogonalLoop=1;jettySize=auto;html=1;exitX=0.5;exitY=1;exitDx=0;exitDy=0;" edge="1" parent="1" source="iMyqDtAnHTY7d6lFeYDp-20" target="iMyqDtAnHTY7d6lFeYDp-29">
          <mxGeometry relative="1" as="geometry" />
        </mxCell>
        <mxCell id="iMyqDtAnHTY7d6lFeYDp-20" value="Flink" style="rounded=1;whiteSpace=wrap;html=1;fillColor=#e1d5e7;strokeColor=#9673a6;" vertex="1" parent="1">
          <mxGeometry x="860" y="470" width="120" height="60" as="geometry" />
        </mxCell>
        <mxCell id="iMyqDtAnHTY7d6lFeYDp-21" value="prometheus/vmagent" style="rounded=1;whiteSpace=wrap;html=1;fillColor=#fff2cc;strokeColor=#d6b656;" vertex="1" parent="1">
          <mxGeometry x="310" y="400" width="120" height="60" as="geometry" />
        </mxCell>
        <mxCell id="iMyqDtAnHTY7d6lFeYDp-27" style="edgeStyle=orthogonalEdgeStyle;rounded=0;orthogonalLoop=1;jettySize=auto;html=1;" edge="1" parent="1" source="iMyqDtAnHTY7d6lFeYDp-22">
          <mxGeometry relative="1" as="geometry">
            <mxPoint x="818" y="340" as="sourcePoint" />
            <mxPoint x="868" y="340" as="targetPoint" />
          </mxGeometry>
        </mxCell>
        <mxCell id="iMyqDtAnHTY7d6lFeYDp-22" value="vminsert" style="rounded=1;whiteSpace=wrap;html=1;fillColor=#fff2cc;strokeColor=#d6b656;" vertex="1" parent="1">
          <mxGeometry x="690" y="310" width="120" height="60" as="geometry" />
        </mxCell>
        <mxCell id="iMyqDtAnHTY7d6lFeYDp-23" value="vmstorage" style="rounded=1;whiteSpace=wrap;html=1;fillColor=#fff2cc;strokeColor=#d6b656;" vertex="1" parent="1">
          <mxGeometry x="870" y="300" width="120" height="60" as="geometry" />
        </mxCell>
        <mxCell id="iMyqDtAnHTY7d6lFeYDp-54" style="edgeStyle=orthogonalEdgeStyle;rounded=0;orthogonalLoop=1;jettySize=auto;html=1;exitX=0.75;exitY=0;exitDx=0;exitDy=0;entryX=0.5;entryY=1;entryDx=0;entryDy=0;" edge="1" parent="1" source="iMyqDtAnHTY7d6lFeYDp-24" target="iMyqDtAnHTY7d6lFeYDp-53">
          <mxGeometry relative="1" as="geometry" />
        </mxCell>
        <mxCell id="iMyqDtAnHTY7d6lFeYDp-24" value="vmstorage" style="rounded=1;whiteSpace=wrap;html=1;fillColor=#fff2cc;strokeColor=#d6b656;" vertex="1" parent="1">
          <mxGeometry x="880" y="310" width="120" height="60" as="geometry" />
        </mxCell>
        <mxCell id="iMyqDtAnHTY7d6lFeYDp-32" style="edgeStyle=orthogonalEdgeStyle;rounded=0;orthogonalLoop=1;jettySize=auto;html=1;exitX=1;exitY=0.5;exitDx=0;exitDy=0;entryX=0.575;entryY=1.058;entryDx=0;entryDy=0;entryPerimeter=0;" edge="1" parent="1" source="iMyqDtAnHTY7d6lFeYDp-29" target="iMyqDtAnHTY7d6lFeYDp-31">
          <mxGeometry relative="1" as="geometry" />
        </mxCell>
        <mxCell id="iMyqDtAnHTY7d6lFeYDp-29" value="kafka" style="rounded=1;whiteSpace=wrap;html=1;fillColor=#e1d5e7;strokeColor=#9673a6;" vertex="1" parent="1">
          <mxGeometry x="860" y="580" width="120" height="60" as="geometry" />
        </mxCell>
        <mxCell id="iMyqDtAnHTY7d6lFeYDp-33" style="edgeStyle=orthogonalEdgeStyle;rounded=0;orthogonalLoop=1;jettySize=auto;html=1;exitX=0.5;exitY=0;exitDx=0;exitDy=0;entryX=1;entryY=0.5;entryDx=0;entryDy=0;" edge="1" parent="1" source="iMyqDtAnHTY7d6lFeYDp-31" target="iMyqDtAnHTY7d6lFeYDp-24">
          <mxGeometry relative="1" as="geometry">
            <mxPoint x="1020" y="370" as="targetPoint" />
          </mxGeometry>
        </mxCell>
        <mxCell id="iMyqDtAnHTY7d6lFeYDp-31" value="自研sink" style="rounded=1;whiteSpace=wrap;html=1;fillColor=#e1d5e7;strokeColor=#9673a6;" vertex="1" parent="1">
          <mxGeometry x="1010" y="470" width="120" height="60" as="geometry" />
        </mxCell>
        <mxCell id="iMyqDtAnHTY7d6lFeYDp-39" style="edgeStyle=orthogonalEdgeStyle;rounded=0;orthogonalLoop=1;jettySize=auto;html=1;exitX=0;exitY=0.5;exitDx=0;exitDy=0;entryX=1;entryY=0.5;entryDx=0;entryDy=0;" edge="1" parent="1" source="iMyqDtAnHTY7d6lFeYDp-34" target="iMyqDtAnHTY7d6lFeYDp-36">
          <mxGeometry relative="1" as="geometry" />
        </mxCell>
        <mxCell id="iMyqDtAnHTY7d6lFeYDp-34" value="vmselect" style="rounded=1;whiteSpace=wrap;html=1;fillColor=#d5e8d4;strokeColor=#82b366;" vertex="1" parent="1">
          <mxGeometry x="870" y="170" width="120" height="60" as="geometry" />
        </mxCell>
        <mxCell id="iMyqDtAnHTY7d6lFeYDp-38" style="edgeStyle=orthogonalEdgeStyle;rounded=0;orthogonalLoop=1;jettySize=auto;html=1;exitX=0;exitY=0.5;exitDx=0;exitDy=0;" edge="1" parent="1" source="iMyqDtAnHTY7d6lFeYDp-36" target="iMyqDtAnHTY7d6lFeYDp-37">
          <mxGeometry relative="1" as="geometry" />
        </mxCell>
        <mxCell id="iMyqDtAnHTY7d6lFeYDp-36" value="vmalert" style="rounded=1;whiteSpace=wrap;html=1;fillColor=#f8cecc;strokeColor=#b85450;" vertex="1" parent="1">
          <mxGeometry x="680" y="170" width="120" height="60" as="geometry" />
        </mxCell>
        <mxCell id="iMyqDtAnHTY7d6lFeYDp-37" value="alertmanager" style="rounded=1;whiteSpace=wrap;html=1;fillColor=#f8cecc;strokeColor=#b85450;" vertex="1" parent="1">
          <mxGeometry x="510" y="170" width="120" height="60" as="geometry" />
        </mxCell>
        <mxCell id="iMyqDtAnHTY7d6lFeYDp-41" style="edgeStyle=orthogonalEdgeStyle;rounded=0;orthogonalLoop=1;jettySize=auto;html=1;exitX=0.5;exitY=1;exitDx=0;exitDy=0;entryX=0.5;entryY=0;entryDx=0;entryDy=0;" edge="1" parent="1" source="iMyqDtAnHTY7d6lFeYDp-40" target="iMyqDtAnHTY7d6lFeYDp-34">
          <mxGeometry relative="1" as="geometry" />
        </mxCell>
        <mxCell id="iMyqDtAnHTY7d6lFeYDp-40" value="grafana" style="rounded=1;whiteSpace=wrap;html=1;fillColor=#d5e8d4;strokeColor=#82b366;" vertex="1" parent="1">
          <mxGeometry x="870" y="40" width="120" height="60" as="geometry" />
        </mxCell>
        <mxCell id="iMyqDtAnHTY7d6lFeYDp-42" value="vmselect" style="rounded=1;whiteSpace=wrap;html=1;fillColor=#d5e8d4;strokeColor=#82b366;" vertex="1" parent="1">
          <mxGeometry x="880" y="180" width="120" height="60" as="geometry" />
        </mxCell>
        <mxCell id="iMyqDtAnHTY7d6lFeYDp-44" value="写入组建" style="text;html=1;align=center;verticalAlign=middle;resizable=0;points=[];autosize=1;strokeColor=none;fillColor=none;" vertex="1" parent="1">
          <mxGeometry x="715" y="380" width="70" height="30" as="geometry" />
        </mxCell>
        <mxCell id="iMyqDtAnHTY7d6lFeYDp-45" value="告警模块" style="text;html=1;align=center;verticalAlign=middle;resizable=0;points=[];autosize=1;strokeColor=none;fillColor=none;" vertex="1" parent="1">
          <mxGeometry x="505" y="108" width="70" height="30" as="geometry" />
        </mxCell>
        <mxCell id="iMyqDtAnHTY7d6lFeYDp-46" value="采集模块" style="text;html=1;align=center;verticalAlign=middle;resizable=0;points=[];autosize=1;strokeColor=none;fillColor=none;" vertex="1" parent="1">
          <mxGeometry x="330" y="470" width="70" height="30" as="geometry" />
        </mxCell>
        <mxCell id="iMyqDtAnHTY7d6lFeYDp-48" value="指标聚合模块" style="text;html=1;align=center;verticalAlign=middle;resizable=0;points=[];autosize=1;strokeColor=none;fillColor=none;" vertex="1" parent="1">
          <mxGeometry x="520" y="580" width="100" height="30" as="geometry" />
        </mxCell>
        <mxCell id="iMyqDtAnHTY7d6lFeYDp-49" value="视图模块" style="text;html=1;align=center;verticalAlign=middle;resizable=0;points=[];autosize=1;strokeColor=none;fillColor=none;" vertex="1" parent="1">
          <mxGeometry x="990" y="55" width="70" height="30" as="geometry" />
        </mxCell>
        <mxCell id="iMyqDtAnHTY7d6lFeYDp-50" value="数据源" style="text;html=1;align=center;verticalAlign=middle;resizable=0;points=[];autosize=1;strokeColor=none;fillColor=none;" vertex="1" parent="1">
          <mxGeometry x="120" y="490" width="60" height="30" as="geometry" />
        </mxCell>
        <mxCell id="iMyqDtAnHTY7d6lFeYDp-51" value="时序数据库" style="text;html=1;align=center;verticalAlign=middle;resizable=0;points=[];autosize=1;strokeColor=none;fillColor=none;" vertex="1" parent="1">
          <mxGeometry x="900" y="380" width="80" height="30" as="geometry" />
        </mxCell>
        <mxCell id="iMyqDtAnHTY7d6lFeYDp-52" value="写入网关" style="text;html=1;align=center;verticalAlign=middle;resizable=0;points=[];autosize=1;strokeColor=none;fillColor=none;" vertex="1" parent="1">
          <mxGeometry x="540" y="380" width="70" height="30" as="geometry" />
        </mxCell>
        <mxCell id="iMyqDtAnHTY7d6lFeYDp-55" style="edgeStyle=orthogonalEdgeStyle;rounded=0;orthogonalLoop=1;jettySize=auto;html=1;exitX=0;exitY=0.5;exitDx=0;exitDy=0;entryX=1;entryY=0.5;entryDx=0;entryDy=0;" edge="1" parent="1" source="iMyqDtAnHTY7d6lFeYDp-53" target="iMyqDtAnHTY7d6lFeYDp-42">
          <mxGeometry relative="1" as="geometry" />
        </mxCell>
        <mxCell id="iMyqDtAnHTY7d6lFeYDp-53" value="vmauth" style="rounded=1;whiteSpace=wrap;html=1;fillColor=#d5e8d4;strokeColor=#82b366;" vertex="1" parent="1">
          <mxGeometry x="1020" y="180" width="120" height="60" as="geometry" />
        </mxCell>
      </root>
    </mxGraphModel>
  </diagram>
</mxfile>
